{
    "asset" : {
        "generator" : "Khronos glTF Blender I/O v1.5.17",
        "version" : "2.0"
    },
    "scene" : 0,
    "scenes" : [
        {
            "name" : "Scene",
            "nodes" : [
                5
            ]
        }
    ],
    "nodes" : [
        {
            "name" : "Bone.001",
            "rotation" : [
                3.552716643415816e-15,
                6.352747104407253e-22,
                2.842170943040401e-14,
                1
            ],
            "translation" : [
                3.730349362740526e-14,
                0.4550933241844177,
                -7.450578376477779e-09
            ]
        },
        {
            "children" : [
                0
            ],
            "name" : "Bone.002",
            "rotation" : [
                1.637154767308857e-08,
                2.2781510158149595e-14,
                9.422124301746663e-15,
                1
            ],
            "scale" : [
                1,
                0.9999999403953552,
                1
            ],
            "translation" : [
                -3.5527141023169746e-15,
                0.4550932049751282,
                -7.450580596923828e-09
            ]
        },
        {
            "children" : [
                1
            ],
            "name" : "Bone.003",
            "rotation" : [
                -1.637154944944541e-08,
                -1.465229673533366e-15,
                1.2360175816877872e-15,
                1
            ],
            "translation" : [
                3.552713678800501e-15,
                0.4550932049751282,
                1.3877787807814457e-16
            ]
        },
        {
            "children" : [
                2
            ],
            "name" : "Bone",
            "rotation" : [
                1.1667010824112367e-07,
                -0.7071068286895752,
                0.7071068286895752,
                9.899943975710812e-09
            ],
            "translation" : [
                -3.974533360448766e-23,
                -0.10000000149011612,
                -2.220446049250313e-16
            ]
        },
        {
            "mesh" : 0,
            "name" : "Cylinder",
            "skin" : 0
        },
        {
            "children" : [
                4,
                3
            ],
            "name" : "Armature",
            "translation" : [
                -0.0027344932314008474,
                0.09974836558103561,
                0.9406942129135132
            ]
        }
    ],
    "meshes" : [
        {
            "name" : "Cylinder",
            "primitives" : [
                {
                    "attributes" : {
                        "POSITION" : 0,
                        "NORMAL" : 1,
                        "TEXCOORD_0" : 2,
                        "JOINTS_0" : 3,
                        "WEIGHTS_0" : 4
                    },
                    "indices" : 5
                }
            ]
        }
    ],
    "skins" : [
        {
            "inverseBindMatrices" : 6,
            "joints" : [
                3,
                2,
                1,
                0
            ],
            "name" : "Armature"
        }
    ],
    "accessors" : [
        {
            "bufferView" : 0,
            "componentType" : 5126,
            "count" : 2090,
            "max" : [
                0.10000002384185791,
                0.10000018775463104,
                1.000000238418579
            ],
            "min" : [
                -0.10000002384185791,
                -0.10000018775463104,
                -1.000000238418579
            ],
            "type" : "VEC3"
        },
        {
            "bufferView" : 1,
            "componentType" : 5126,
            "count" : 2090,
            "type" : "VEC3"
        },
        {
            "bufferView" : 2,
            "componentType" : 5126,
            "count" : 2090,
            "type" : "VEC2"
        },
        {
            "bufferView" : 3,
            "componentType" : 5121,
            "count" : 2090,
            "type" : "VEC4"
        },
        {
            "bufferView" : 4,
            "componentType" : 5126,
            "count" : 2090,
            "type" : "VEC4"
        },
        {
            "bufferView" : 5,
            "componentType" : 5123,
            "count" : 3252,
            "type" : "SCALAR"
        },
        {
            "bufferView" : 6,
            "componentType" : 5126,
            "count" : 4,
            "type" : "MAT4"
        }
    ],
    "bufferViews" : [
        {
            "buffer" : 0,
            "byteLength" : 25080,
            "byteOffset" : 0
        },
        {
            "buffer" : 0,
            "byteLength" : 25080,
            "byteOffset" : 25080
        },
        {
            "buffer" : 0,
            "byteLength" : 16720,
            "byteOffset" : 50160
        },
        {
            "buffer" : 0,
            "byteLength" : 8360,
            "byteOffset" : 66880
        },
        {
            "buffer" : 0,
            "byteLength" : 33440,
            "byteOffset" : 75240
        },
        {
            "buffer" : 0,
            "byteLength" : 6504,
            "byteOffset" : 108680
        },
        {
            "buffer" : 0,
            "byteLength" : 256,
            "byteOffset" : 115184
        }
    ],
    "buffers" : [
        {
            "byteLength" : 115440,
            "uri" : "data:application/octet-stream;base64,"
        }
    ]
}
