{
    "asset" : {
        "generator" : "Khronos glTF Blender I/O v1.6.16",
        "version" : "2.0"
    },
    "scene" : 0,
    "scenes" : [
        {
            "name" : "Scene",
            "nodes" : [
                14
            ]
        }
    ],
    "nodes" : [
        {
            "name" : "Bone.024",
            "translation" : [
                0,
                0.49883604049682617,
                0
            ]
        },
        {
            "children" : [
                0
            ],
            "name" : "Bone.016",
            "translation" : [
                0,
                0.49883604049682617,
                0
            ]
        },
        {
            "children" : [
                1
            ],
            "name" : "Bone.017",
            "translation" : [
                0,
                0.49883604049682617,
                0
            ]
        },
        {
            "children" : [
                2
            ],
            "name" : "Bone.018",
            "translation" : [
                0,
                0.4988365173339844,
                0
            ]
        },
        {
            "children" : [
                3
            ],
            "name" : "Bone.019",
            "translation" : [
                0,
                0.4988362789154053,
                0
            ]
        },
        {
            "children" : [
                4
            ],
            "name" : "Bone.020",
            "translation" : [
                0,
                0.4988365173339844,
                0
            ]
        },
        {
            "children" : [
                5
            ],
            "name" : "Bone.021",
            "translation" : [
                0,
                0.4988365173339844,
                0
            ]
        },
        {
            "children" : [
                6
            ],
            "name" : "Bone.022",
            "translation" : [
                0,
                0.4988363981246948,
                0
            ]
        },
        {
            "children" : [
                7
            ],
            "name" : "Bone.023",
            "translation" : [
                0,
                0.4988362789154053,
                0
            ]
        },
        {
            "children" : [
                8
            ],
            "name" : "Bone.001",
            "translation" : [
                5.048709793414476e-29,
                0.4687667489051819,
                6.887932566146075e-29
            ]
        },
        {
            "children" : [
                9
            ],
            "name" : "Bone.002",
            "translation" : [
                -3.405960095962294e-22,
                0.4687667489051819,
                2.977585495152655e-29
            ]
        },
        {
            "children" : [
                10
            ],
            "name" : "Bone.003",
            "scale" : [
                1,
                0.9999999403953552,
                1
            ],
            "translation" : [
                2.24986639022339e-22,
                0.4687664210796356,
                -9.366808432775931e-30
            ]
        },
        {
            "children" : [
                11
            ],
            "name" : "Bone",
            "rotation" : [
                0,
                0.7071068286895752,
                0.7071068286895752,
                0
            ],
            "scale" : [
                1,
                0.9999997019767761,
                1
            ]
        },
        {
            "mesh" : 0,
            "name" : "Cylinder",
            "skin" : 0
        },
        {
            "children" : [
                13,
                12
            ],
            "name" : "Armature"
        }
    ],
    "meshes" : [
        {
            "name" : "Cylinder.004",
            "primitives" : [
                {
                    "attributes" : {
                        "POSITION" : 0,
                        "NORMAL" : 1,
                        "TEXCOORD_0" : 2,
                        "JOINTS_0" : 3,
                        "WEIGHTS_0" : 4
                    },
                    "indices" : 5
                }
            ]
        }
    ],
    "skins" : [
        {
            "inverseBindMatrices" : 6,
            "joints" : [
                12,
                11,
                10,
                9,
                8,
                7,
                6,
                5,
                4,
                3,
                2,
                1,
                0
            ],
            "name" : "Armature"
        }
    ],
    "accessors" : [
        {
            "bufferView" : 0,
            "componentType" : 5126,
            "count" : 3200,
            "max" : [
                0.250465452671051,
                0.25046542286872864,
                6.370222091674805
            ],
            "min" : [
                -0.250465452671051,
                -0.25046592950820923,
                -0.0075194318778812885
            ],
            "type" : "VEC3"
        },
        {
            "bufferView" : 1,
            "componentType" : 5126,
            "count" : 3200,
            "type" : "VEC3"
        },
        {
            "bufferView" : 2,
            "componentType" : 5126,
            "count" : 3200,
            "type" : "VEC2"
        },
        {
            "bufferView" : 3,
            "componentType" : 5121,
            "count" : 3200,
            "type" : "VEC4"
        },
        {
            "bufferView" : 4,
            "componentType" : 5126,
            "count" : 3200,
            "type" : "VEC4"
        },
        {
            "bufferView" : 5,
            "componentType" : 5123,
            "count" : 3252,
            "type" : "SCALAR"
        },
        {
            "bufferView" : 6,
            "componentType" : 5126,
            "count" : 13,
            "type" : "MAT4"
        }
    ],
    "bufferViews" : [
        {
            "buffer" : 0,
            "byteLength" : 38400,
            "byteOffset" : 0
        },
        {
            "buffer" : 0,
            "byteLength" : 38400,
            "byteOffset" : 38400
        },
        {
            "buffer" : 0,
            "byteLength" : 25600,
            "byteOffset" : 76800
        },
        {
            "buffer" : 0,
            "byteLength" : 12800,
            "byteOffset" : 102400
        },
        {
            "buffer" : 0,
            "byteLength" : 51200,
            "byteOffset" : 115200
        },
        {
            "buffer" : 0,
            "byteLength" : 6504,
            "byteOffset" : 166400
        },
        {
            "buffer" : 0,
            "byteLength" : 832,
            "byteOffset" : 172904
        }
    ],
    "buffers" : [
        {
            "byteLength" : 173736,
            "uri" : "data:application/octet-stream;base64,"
        }
    ]
}
