{
    "asset" : {
        "generator" : "Khronos glTF Blender I/O v1.5.17",
        "version" : "2.0"
    },
    "scene" : 0,
    "scenes" : [
        {
            "name" : "Scene",
            "nodes" : [
                5
            ]
        }
    ],
    "nodes" : [
        {
            "name" : "Bone.001",
            "rotation" : [
                -1.7763568394002505e-15,
                4.371138473402425e-08,
                -1.2893757315349565e-22,
                1
            ],
            "translation" : [
                1.6912510473212763e-28,
                0.46876639127731323,
                -2.541098841762901e-21
            ]
        },
        {
            "children" : [
                0
            ],
            "name" : "Bone.002",
            "rotation" : [
                1.3792881011898515e-37,
                -4.371138473402425e-08,
                2.305849103430975e-23,
                1
            ],
            "translation" : [
                -3.405959591091315e-22,
                0.46876633167266846,
                5.329069671167804e-15
            ]
        },
        {
            "children" : [
                1
            ],
            "name" : "Bone.003",
            "rotation" : [
                -1.7763568394002505e-15,
                -3.1786509424591713e-08,
                -4.004579810151186e-22,
                1
            ],
            "translation" : [
                2.249865632916921e-22,
                0.46876612305641174,
                1.77635620412554e-15
            ]
        },
        {
            "children" : [
                2
            ],
            "name" : "Bone",
            "rotation" : [
                5.338507236274381e-08,
                -0.7071068286895752,
                -0.7071068286895752,
                5.338507236274381e-08
            ],
            "scale" : [
                1,
                0.9999997019767761,
                1
            ]
        },
        {
            "mesh" : 0,
            "name" : "Cylinder",
            "skin" : 0
        },
        {
            "children" : [
                4,
                3
            ],
            "name" : "Armature"
        }
    ],
    "meshes" : [
        {
            "name" : "Cylinder.004",
            "primitives" : [
                {
                    "attributes" : {
                        "POSITION" : 0,
                        "NORMAL" : 1,
                        "TEXCOORD_0" : 2,
                        "JOINTS_0" : 3,
                        "WEIGHTS_0" : 4
                    },
                    "indices" : 5
                }
            ]
        }
    ],
    "skins" : [
        {
            "inverseBindMatrices" : 6,
            "joints" : [
                3,
                2,
                1,
                0
            ],
            "name" : "Armature"
        }
    ],
    "accessors" : [
        {
            "bufferView" : 0,
            "componentType" : 5126,
            "count" : 2108,
            "max" : [
                0.25046539306640625,
                0.25046539306640625,
                1.9821733236312866
            ],
            "min" : [
                -0.25046539306640625,
                -0.2504657208919525,
                -0.0023398008197546005
            ],
            "type" : "VEC3"
        },
        {
            "bufferView" : 1,
            "componentType" : 5126,
            "count" : 2108,
            "type" : "VEC3"
        },
        {
            "bufferView" : 2,
            "componentType" : 5126,
            "count" : 2108,
            "type" : "VEC2"
        },
        {
            "bufferView" : 3,
            "componentType" : 5121,
            "count" : 2108,
            "type" : "VEC4"
        },
        {
            "bufferView" : 4,
            "componentType" : 5126,
            "count" : 2108,
            "type" : "VEC4"
        },
        {
            "bufferView" : 5,
            "componentType" : 5123,
            "count" : 3252,
            "type" : "SCALAR"
        },
        {
            "bufferView" : 6,
            "componentType" : 5126,
            "count" : 4,
            "type" : "MAT4"
        }
    ],
    "bufferViews" : [
        {
            "buffer" : 0,
            "byteLength" : 25296,
            "byteOffset" : 0
        },
        {
            "buffer" : 0,
            "byteLength" : 25296,
            "byteOffset" : 25296
        },
        {
            "buffer" : 0,
            "byteLength" : 16864,
            "byteOffset" : 50592
        },
        {
            "buffer" : 0,
            "byteLength" : 8432,
            "byteOffset" : 67456
        },
        {
            "buffer" : 0,
            "byteLength" : 33728,
            "byteOffset" : 75888
        },
        {
            "buffer" : 0,
            "byteLength" : 6504,
            "byteOffset" : 109616
        },
        {
            "buffer" : 0,
            "byteLength" : 256,
            "byteOffset" : 116120
        }
    ],
    "buffers" : [
        {
            "byteLength" : 116376,
            "uri" : "data:application/octet-stream;base64,"
        }
    ]
}
