{
  "asset": {
    "generator": "Khronos glTF Blender I/O v1.6.16",
    "version": "2.0"
  },
  "scene": 0,
  "scenes": [
    {
      "name": "Scene",
      "nodes": [6]
    }
  ],
  "nodes": [
    {
      "name": "end-effector",
      "translation": [0, 4, 0]
    },
    {
      "children": [0],
      "name": "wrist",
      "translation": [0, 4, 0]
    },
    {
      "children": [1],
      "name": "forearm",
      "translation": [0, 4, 0]
    },
    {
      "children": [2],
      "name": "huberus",
      "translation": [0, 4, 0]
    },
    {
      "children": [3],
      "name": "shoulder",
      "translation": [0, -10, 0]
    },
    {
      "mesh": 0,
      "name": "Cylinder",
      "skin": 0
    },
    {
      "children": [5, 4],
      "name": "Armature"
    }
  ],
  "meshes": [
    {
      "name": "Cylinder",
      "primitives": [
        {
          "attributes": {
            "POSITION": 0,
            "NORMAL": 1,
            "TEXCOORD_0": 2,
            "JOINTS_0": 3,
            "WEIGHTS_0": 4
          },
          "indices": 5
        }
      ]
    }
  ],
  "skins": [
    {
      "inverseBindMatrices": 6,
      "joints": [4, 3, 2, 1, 0],
      "name": "Armature"
    }
  ],
  "accessors": [
    {
      "bufferView": 0,
      "componentType": 5126,
      "count": 660,
      "max": [1, 10, 1],
      "min": [-1, -10, -1],
      "type": "VEC3"
    },
    {
      "bufferView": 1,
      "componentType": 5126,
      "count": 660,
      "type": "VEC3"
    },
    {
      "bufferView": 2,
      "componentType": 5126,
      "count": 660,
      "type": "VEC2"
    },
    {
      "bufferView": 3,
      "componentType": 5121,
      "count": 660,
      "type": "VEC4"
    },
    {
      "bufferView": 4,
      "componentType": 5126,
      "count": 660,
      "type": "VEC4"
    },
    {
      "bufferView": 5,
      "componentType": 5123,
      "count": 1140,
      "type": "SCALAR"
    },
    {
      "bufferView": 6,
      "componentType": 5126,
      "count": 5,
      "type": "MAT4"
    }
  ],
  "bufferViews": [
    {
      "buffer": 0,
      "byteLength": 7920,
      "byteOffset": 0
    },
    {
      "buffer": 0,
      "byteLength": 7920,
      "byteOffset": 7920
    },
    {
      "buffer": 0,
      "byteLength": 5280,
      "byteOffset": 15840
    },
    {
      "buffer": 0,
      "byteLength": 2640,
      "byteOffset": 21120
    },
    {
      "buffer": 0,
      "byteLength": 10560,
      "byteOffset": 23760
    },
    {
      "buffer": 0,
      "byteLength": 2280,
      "byteOffset": 34320
    },
    {
      "buffer": 0,
      "byteLength": 320,
      "byteOffset": 36600
    }
  ],
  "buffers": [
    {
      "byteLength": 36920,
      "uri": "data:application/octet-stream;base64,"
    }
  ]
}
